<?xml version="1.0" encoding="UTF-8" standalone="no"?>
<!-- Created with Inkscape (http://www.inkscape.org/) -->

<svg
   xmlns:dc="http://purl.org/dc/elements/1.1/"
   xmlns:cc="http://creativecommons.org/ns#"
   xmlns:rdf="http://www.w3.org/1999/02/22-rdf-syntax-ns#"
   xmlns:svg="http://www.w3.org/2000/svg"
   xmlns="http://www.w3.org/2000/svg"
   xmlns:sodipodi="http://sodipodi.sourceforge.net/DTD/sodipodi-0.dtd"
   xmlns:inkscape="http://www.inkscape.org/namespaces/inkscape"
   width="87.305573"
   height="24.1768"
   id="svg67405"
   version="1.1"
   inkscape:version="0.47 r22583"
   sodipodi:docname="Nouveau document 4">
  <defs
     id="defs67407">
    <inkscape:perspective
       sodipodi:type="inkscape:persp3d"
       inkscape:vp_x="0 : 526.18109 : 1"
       inkscape:vp_y="0 : 1000 : 0"
       inkscape:vp_z="744.09448 : 526.18109 : 1"
       inkscape:persp3d-origin="372.04724 : 350.78739 : 1"
       id="perspective67413" />
    <inkscape:perspective
       id="perspective67226"
       inkscape:persp3d-origin="0.5 : 0.33333333 : 1"
       inkscape:vp_z="1 : 0.5 : 1"
       inkscape:vp_y="0 : 1000 : 0"
       inkscape:vp_x="0 : 0.5 : 1"
       sodipodi:type="inkscape:persp3d" />
    <clipPath
       clipPathUnits="userSpaceOnUse"
       id="clipPath3232">
      <path
         d="m 279.058,375.282 70.229,0 0,19.699 -70.229,0 0,-19.699 z"
         id="path3234" />
    </clipPath>
  </defs>
  <sodipodi:namedview
     id="base"
     pagecolor="#ffffff"
     bordercolor="#666666"
     borderopacity="1.0"
     inkscape:pageopacity="0.0"
     inkscape:pageshadow="2"
     inkscape:zoom="2.8"
     inkscape:cx="50.081358"
     inkscape:cy="-14.324972"
     inkscape:document-units="px"
     inkscape:current-layer="layer1"
     showgrid="false"
     inkscape:window-width="1366"
     inkscape:window-height="706"
     inkscape:window-x="-8"
     inkscape:window-y="-8"
     inkscape:window-maximized="1" />
  <metadata
     id="metadata67410">
    <rdf:RDF>
      <cc:Work
         rdf:about="">
        <dc:format>image/svg+xml</dc:format>
        <dc:type
           rdf:resource="http://purl.org/dc/dcmitype/StillImage" />
        <dc:title></dc:title>
      </cc:Work>
    </rdf:RDF>
  </metadata>
  <g
     inkscape:label="Calque 1"
     inkscape:groupmode="layer"
     id="layer1"
     transform="translate(-324.91864,-403.13092)">
    <g
       transform="matrix(1.25,0,0,-1.25,-24.141255,896.61372)"
       id="g3228">
      <g
         id="g3230"
         clip-path="url(#clipPath3232)">
        <g
           id="g3236"
           transform="matrix(0.1558216,0,0,-0.1564003,249.65533,121.01376)">
          <g
             id="g3238"
             transform="translate(195.3062,-1639.5377)">
            <path
               d="m 0,0 c 9.879,-6.479 19.615,-11.469 28.98,-15.229 l -0.1,-0.167 C 18.273,-32.592 14.497,-59.153 14.497,-59.153 c 0,0 -7.8,4.441 -14.483,9.379 L 0,0 z"
               style="fill:#1a5dad;fill-opacity:1;fill-rule:nonzero;stroke:none"
               id="path3240" />
          </g>
        </g>
        <g
           id="g3242"
           transform="matrix(0.1558216,0,0,-0.1564003,249.65533,121.01376)">
          <g
             id="g3244"
             transform="translate(318.357,-1659.0554)">
            <path
               d="m 0,0 c 0,0 -29.342,-11.783 -69.795,-3.115 l -0.024,-0.063 c -14.816,-25.205 -16.214,-47.218 -16.214,-47.218 0,0 29.101,-13.059 66.148,-14.728 l 0.184,0.006 C -22.955,-48.614 -21.863,-24.549 0,0"
               style="fill:#1a5dad;fill-opacity:1;fill-rule:nonzero;stroke:none"
               id="path3246" />
          </g>
        </g>
        <g
           id="g3248"
           transform="matrix(0.1558216,0,0,-0.1564003,249.65533,121.01376)">
          <g
             id="g3250"
             transform="translate(308.525,-1730.0188)">
            <path
               d="M 0,0 2.043,6.218 8.592,6.244 3.307,10.113 5.311,16.35 0,12.516 -5.315,16.35 -3.313,10.113 -8.597,6.244 -2.047,6.218 0,0 z"
               style="fill:#fff200;fill-opacity:1;fill-rule:nonzero;stroke:none"
               id="path3252" />
          </g>
        </g>
        <g
           id="g3254"
           transform="matrix(0.1558216,0,0,-0.1564003,249.65533,121.01376)">
          <g
             id="g3256"
             transform="translate(308.525,-1730.0188)">
            <path
               d="M 0,0 2.043,6.218 8.592,6.244 3.307,10.113 5.311,16.35 0,12.516 -5.315,16.35 -3.313,10.113 -8.597,6.244 -2.047,6.218 0,0 z"
               style="fill:none;stroke:#1a5dad;stroke-width:0.87199998;stroke-linecap:butt;stroke-linejoin:miter;stroke-miterlimit:4;stroke-opacity:1;stroke-dasharray:none"
               id="path3258" />
          </g>
        </g>
        <g
           id="g3260"
           transform="matrix(0.1558216,0,0,-0.1564003,249.65533,121.01376)">
          <g
             id="g3262"
             transform="translate(259.1265,-1685.5271)">
            <path
               d="M 0,0 2.047,6.222 8.595,6.248 3.31,10.109 5.314,16.35 0,12.516 -5.309,16.35 -3.308,10.109 -8.594,6.248 -2.044,6.222 0,0 z"
               style="fill:#fff200;fill-opacity:1;fill-rule:nonzero;stroke:none"
               id="path3264" />
          </g>
        </g>
        <g
           id="g3266"
           transform="matrix(0.1558216,0,0,-0.1564003,249.65533,121.01376)">
          <g
             id="g3268"
             transform="translate(259.1265,-1685.5271)">
            <path
               d="M 0,0 2.047,6.222 8.595,6.248 3.31,10.109 5.314,16.35 0,12.516 -5.309,16.35 -3.308,10.109 -8.594,6.248 -2.044,6.222 0,0 z"
               style="fill:none;stroke:#1a5dad;stroke-width:0.43599999;stroke-linecap:butt;stroke-linejoin:miter;stroke-miterlimit:4;stroke-opacity:1;stroke-dasharray:none"
               id="path3270" />
          </g>
        </g>
        <g
           id="g3272"
           transform="matrix(0.1558216,0,0,-0.1564003,249.65533,121.01376)">
          <g
             id="g3274"
             transform="translate(286.649,-1721.8728)">
            <path
               d="M 0,0 2.045,6.218 8.596,6.244 3.308,10.111 5.313,16.346 0,12.514 -5.312,16.346 -3.309,10.111 -8.595,6.244 -2.045,6.218 0,0 z"
               style="fill:#fff200;fill-opacity:1;fill-rule:nonzero;stroke:none"
               id="path3276" />
          </g>
        </g>
        <g
           id="g3278"
           transform="matrix(0.1558216,0,0,-0.1564003,249.65533,121.01376)">
          <g
             id="g3280"
             transform="translate(286.649,-1721.8728)">
            <path
               d="M 0,0 2.045,6.218 8.596,6.244 3.308,10.111 5.313,16.346 0,12.514 -5.312,16.346 -3.309,10.111 -8.595,6.244 -2.045,6.218 0,0 z"
               style="fill:none;stroke:#1a5dad;stroke-width:0.43599999;stroke-linecap:butt;stroke-linejoin:miter;stroke-miterlimit:4;stroke-opacity:1;stroke-dasharray:none"
               id="path3282" />
          </g>
        </g>
        <g
           id="g3284"
           transform="matrix(0.1558216,0,0,-0.1564003,249.65533,121.01376)">
          <g
             id="g3286"
             transform="translate(269.442,-1706.3562)">
            <path
               d="M 0,0 2.046,6.218 8.596,6.243 3.31,10.109 5.314,16.345 0,12.513 -5.312,16.345 -3.31,10.109 -8.594,6.243 -2.044,6.218 0,0 z"
               style="fill:#fff200;fill-opacity:1;fill-rule:nonzero;stroke:none"
               id="path3288" />
          </g>
        </g>
        <g
           id="g3290"
           transform="matrix(0.1558216,0,0,-0.1564003,249.65533,121.01376)">
          <g
             id="g3292"
             transform="translate(269.442,-1706.3562)">
            <path
               d="M 0,0 2.046,6.218 8.596,6.243 3.31,10.109 5.314,16.345 0,12.513 -5.312,16.345 -3.31,10.109 -8.594,6.243 -2.044,6.218 0,0 z"
               style="fill:none;stroke:#1a5dad;stroke-width:0.43599999;stroke-linecap:butt;stroke-linejoin:miter;stroke-miterlimit:4;stroke-opacity:1;stroke-dasharray:none"
               id="path3294" />
          </g>
        </g>
        <g
           id="g3296"
           transform="matrix(0.1558216,0,0,-0.1564003,249.65533,121.01376)">
          <g
             id="g3298"
             transform="translate(257.0958,-1662.5446)">
            <path
               d="M 0,0 2.041,6.219 8.594,6.246 3.307,10.113 5.311,16.351 0,12.514 -5.314,16.351 -3.311,10.113 -8.6,6.246 -2.049,6.219 0,0 z"
               style="fill:#fff200;fill-opacity:1;fill-rule:nonzero;stroke:none"
               id="path3300" />
          </g>
        </g>
        <g
           id="g3302"
           transform="matrix(0.1558216,0,0,-0.1564003,249.65533,121.01376)">
          <g
             id="g3304"
             transform="translate(257.0958,-1662.5446)">
            <path
               d="M 0,0 2.041,6.219 8.594,6.246 3.307,10.113 5.311,16.351 0,12.514 -5.314,16.351 -3.311,10.113 -8.6,6.246 -2.049,6.219 0,0 z"
               style="fill:none;stroke:#1a5dad;stroke-width:0.87199998;stroke-linecap:butt;stroke-linejoin:miter;stroke-miterlimit:4;stroke-opacity:1;stroke-dasharray:none"
               id="path3306" />
          </g>
        </g>
        <g
           id="g3308"
           transform="matrix(0.1558216,0,0,-0.1564003,249.65533,121.01376)">
          <g
             id="g3310"
             transform="translate(195.2505,-1693.528)">
            <path
               d="m 0,0 c 0,0 10.384,-7.33 17.252,-10.562 0,0 3.45,29.525 15.071,47.977 l 0.058,0.08 C 38.357,35.257 44.184,33.5 49.81,32.15 L 49.757,32.035 C 34.792,7.053 33.337,-18.081 33.337,-18.081 c 37.196,-15.985 70.754,-15.985 70.754,-15.985 l 0.11,-0.015 c 2.668,-10.95 6.938,-17.69 6.938,-17.69 L 89.42,-51.79 c -35.596,7.262 -56.661,17.293 -56.661,17.293 -0.727,-2.616 1.596,-17.293 1.596,-17.293 l -16.267,0.013 c -1.891,12.491 -1.746,25.702 -1.746,25.702 C 7.115,-21.243 0,-15.719 0,-15.719 L 0,0 z"
               style="fill:#00adef;fill-opacity:1;fill-rule:nonzero;stroke:none"
               id="path3312" />
          </g>
        </g>
        <g
           id="g3314"
           transform="matrix(0.1558216,0,0,-0.1564003,249.65533,121.01376)">
          <g
             id="g3316"
             transform="translate(195.2662,-1713.549)">
            <path
               d="m 0,0 c 6.699,-4.801 12.857,-8.178 12.857,-8.178 0.238,-14.562 1.709,-23.554 1.709,-23.554 l -14.549,0 L 0,0 z"
               style="fill:#1a5dad;fill-opacity:1;fill-rule:nonzero;stroke:none"
               id="path3318" />
          </g>
        </g>
        <g
           id="g3320"
           transform="matrix(0.1558216,0,0,-0.1564003,249.65533,121.01376)">
          <g
             id="g3322"
             transform="translate(269.2608,-1745.3054)">
            <path
               d="m 0,0 c -20.086,4.631 -37.69,11.958 -37.69,11.958 0,0 0.741,-7.799 1.542,-11.952 L 0,0 z"
               style="fill:#1a5dad;fill-opacity:1;fill-rule:nonzero;stroke:none"
               id="path3324" />
          </g>
        </g>
        <g
           id="g3326"
           transform="matrix(0.1558216,0,0,-0.1564003,249.65533,121.01376)">
          <g
             id="g3328"
             transform="translate(549.206,-1635.7048)">
            <path
               d="m 0,0 88,0 0,-113.818 -446.352,0 0,113.818 89.352,0"
               style="fill:none;stroke:#1a5dad;stroke-width:1.87800002;stroke-linecap:butt;stroke-linejoin:miter;stroke-miterlimit:4;stroke-opacity:1;stroke-dasharray:none"
               id="path3330" />
          </g>
        </g>
        <g
           id="g3332"
           transform="matrix(0.1558216,0,0,-0.1564003,249.65533,121.01376)">
          <g
             id="g3334"
             transform="translate(354.068,-1734.0162)">
            <path
               d="m 0,0 -12.354,22.132 -3.566,0 L -19.325,0 l 2.686,0 2.849,20.208 0.089,0 L -2.682,0 0,0 z"
               style="fill:#1a5dad;fill-opacity:1;fill-rule:nonzero;stroke:none"
               id="path3336" />
          </g>
        </g>
        <g
           id="g3338"
           transform="matrix(0.1558216,0,0,-0.1564003,249.65533,121.01376)">
          <g
             id="g3340"
             transform="translate(354.022,-1711.8844)">
            <path
               d="m 0,0 -2.511,0 4.506,-22.132 2.507,0 L 0,0 z"
               style="fill:#1a5dad;fill-opacity:1;fill-rule:nonzero;stroke:none"
               id="path3342" />
          </g>
        </g>
        <g
           id="g3344"
           transform="matrix(0.1558216,0,0,-0.1564003,249.65533,121.01376)">
          <g
             id="g3346"
             transform="translate(361.284,-1714.0963)">
            <path
               d="m 0,0 11.269,0 -0.448,2.212 -13.777,0 4.502,-22.132 2.507,0 L 0,0 z"
               style="fill:#1a5dad;fill-opacity:1;fill-rule:nonzero;stroke:none"
               id="path3348" />
          </g>
        </g>
        <g
           id="g3350"
           transform="matrix(0.1558216,0,0,-0.1564003,249.65533,121.01376)">
          <g
             id="g3352"
             transform="translate(377.746,-1714.0963)">
            <path
               d="m 0,0 11.273,0 -0.452,2.212 -13.778,0 4.505,-22.132 2.509,0 L 0,0 z"
               style="fill:#1a5dad;fill-opacity:1;fill-rule:nonzero;stroke:none"
               id="path3354" />
          </g>
        </g>
        <g
           id="g3356"
           transform="matrix(0.1558216,0,0,-0.1564003,249.65533,121.01376)">
          <g
             id="g3358"
             transform="translate(395.28,-1724.2799)">
            <path
               d="m 0,0 11.211,0 -0.42,2.063 -11.211,0 -1.652,8.121 11.712,0 -0.451,2.212 -14.218,0 4.503,-22.132 14.218,0 -0.449,2.212 -11.713,0 L 0,0 z"
               style="fill:#1a5dad;fill-opacity:1;fill-rule:nonzero;stroke:none"
               id="path3360" />
          </g>
        </g>
        <g
           id="g3362"
           transform="matrix(0.1558216,0,0,-0.1564003,249.65533,121.01376)">
          <g
             id="g3364"
             transform="translate(428.847,-1714.0963)">
            <path
               d="m 0,0 c 4.425,0 5.544,-2.602 6.407,-6.555 l 1.184,-5.812 c 0.254,-1.239 0.644,-5.341 -3.572,-5.341 l -8.676,0 L -8.26,0 0,0 z m -6.716,-19.92 10.77,0 c 2.684,0 7.511,0.358 5.848,8.525 L 8.827,-6.113 C 8.383,-3.925 6.778,2.212 0.142,2.212 l -11.361,0 4.503,-22.132 z"
               style="fill:#1a5dad;fill-opacity:1;fill-rule:nonzero;stroke:none"
               id="path3366" />
          </g>
        </g>
        <g
           id="g3368"
           transform="matrix(0.1558216,0,0,-0.1564003,249.65533,121.01376)">
          <g
             id="g3370"
             transform="translate(443.636,-1724.2799)">
            <path
               d="m 0,0 11.209,0 -0.421,2.063 -11.209,0 -1.653,8.121 11.714,0 -0.448,2.212 -14.224,0 4.506,-22.132 14.218,0 -0.45,2.212 -11.71,0 L 0,0 z"
               style="fill:#1a5dad;fill-opacity:1;fill-rule:nonzero;stroke:none"
               id="path3372" />
          </g>
        </g>
        <g
           id="g3374"
           transform="matrix(0.1558216,0,0,-0.1564003,249.65533,121.01376)">
          <g
             id="g3376"
             transform="translate(349.807,-1658.2496)">
            <path
               d="m 0,0 -4.638,0 -7.969,-37.87 -0.11,0 -7.708,37.87 -4.692,0 8.427,-41.402 8.117,0 7.41,35.44 21.9,-35.44 8.113,0 L 20.423,0 l -4.69,0 7.706,-37.87 -0.109,0 L 0,0 z"
               style="fill:#1a5dad;fill-opacity:1;fill-rule:nonzero;stroke:none"
               id="path3378" />
          </g>
        </g>
        <g
           id="g3380"
           transform="matrix(0.1558216,0,0,-0.1564003,249.65533,121.01376)">
          <g
             id="g3382"
             transform="translate(349.807,-1658.2496)">
            <path
               d="m 0,0 -4.638,0 -7.969,-37.87 -0.11,0 -7.708,37.87 -4.692,0 8.427,-41.402 8.117,0 7.41,35.44 21.9,-35.44 8.113,0 L 20.423,0 l -4.69,0 7.706,-37.87 -0.109,0 L 0,0 z"
               style="fill:none;stroke:#1a5dad;stroke-width:1.83500004;stroke-linecap:butt;stroke-linejoin:miter;stroke-miterlimit:4;stroke-opacity:1;stroke-dasharray:none"
               id="path3384" />
          </g>
        </g>
        <g
           id="g3386"
           transform="matrix(0.1558216,0,0,-0.1564003,249.65533,121.01376)">
          <g
             id="g3388"
             transform="translate(400.558,-1695.7849)">
            <path
               d="m 0,0 -14.177,24.893 18.328,0 L 0,0 z m -16.232,28.757 -4.989,8.778 -4.914,0 23.5,-41.402 6.623,0 7.028,41.402 -4.857,0 -1.472,-8.778 -20.919,0 z"
               style="fill:#1a5dad;fill-opacity:1;fill-rule:nonzero;stroke:none"
               id="path3390" />
          </g>
        </g>
        <g
           id="g3392"
           transform="matrix(0.1558216,0,0,-0.1564003,249.65533,121.01376)">
          <g
             id="g3394"
             transform="translate(400.558,-1695.7849)">
            <path
               d="m 0,0 -14.177,24.893 18.328,0 L 0,0 z m -16.232,28.757 -4.989,8.778 -4.914,0 23.5,-41.402 6.623,0 7.028,41.402 -4.857,0 -1.472,-8.778 -20.919,0 z"
               style="fill:none;stroke:#1a5dad;stroke-width:1.83500004;stroke-linecap:butt;stroke-linejoin:miter;stroke-miterlimit:4;stroke-opacity:1;stroke-dasharray:none"
               id="path3396" />
          </g>
        </g>
        <g
           id="g3398"
           transform="matrix(0.1558216,0,0,-0.1564003,249.65533,121.01376)">
          <g
             id="g3400"
             transform="translate(439.084,-1678.9489)">
            <path
               d="m 0,0 c 7.274,-0.223 8.608,-2.43 10.001,-9.275 1.08,-5.301 0.767,-7.284 -6.631,-7.284 l -14.463,0 L -14.463,0 0,0 z m -18.676,20.699 -4.694,0 8.43,-41.402 19.097,0 c 8.943,0 12.356,2.487 10.436,11.927 -1.179,5.794 -2.72,10.102 -9.458,10.927 L 5.113,2.262 c 4.57,0.329 6.071,2.982 5.162,7.452 l -2.232,10.985 -4.693,0 1.783,-8.778 C 6.203,6.682 5.451,4.142 -0.236,4.142 l -15.069,0 -3.371,16.557 z"
               style="fill:#1a5dad;fill-opacity:1;fill-rule:nonzero;stroke:none"
               id="path3402" />
          </g>
        </g>
        <g
           id="g3404"
           transform="matrix(0.1558216,0,0,-0.1564003,249.65533,121.01376)">
          <g
             id="g3406"
             transform="translate(439.084,-1678.9489)">
            <path
               d="m 0,0 c 7.274,-0.223 8.608,-2.43 10.001,-9.275 1.08,-5.301 0.767,-7.284 -6.631,-7.284 l -14.463,0 L -14.463,0 0,0 z m -18.676,20.699 -4.694,0 8.43,-41.402 19.097,0 c 8.943,0 12.356,2.487 10.436,11.927 -1.179,5.794 -2.72,10.102 -9.458,10.927 L 5.113,2.262 c 4.57,0.329 6.071,2.982 5.162,7.452 l -2.232,10.985 -4.693,0 1.783,-8.778 C 6.203,6.682 5.451,4.142 -0.236,4.142 l -15.069,0 -3.371,16.557 z"
               style="fill:none;stroke:#1a5dad;stroke-width:1.83500004;stroke-linecap:butt;stroke-linejoin:miter;stroke-miterlimit:4;stroke-opacity:1;stroke-dasharray:none"
               id="path3408" />
          </g>
        </g>
        <g
           id="g3410"
           transform="matrix(0.1558216,0,0,-0.1564003,249.65533,121.01376)">
          <g
             id="g3412"
             transform="translate(458.631,-1687.9489)">
            <path
               d="m 0,0 c 2.253,-11.038 7.531,-12.034 17.745,-12.034 8.942,0 15.318,0.388 12.531,11.651 l -4.693,0 c 1.25,-7.233 -0.071,-7.508 -8.849,-7.508 -9.162,0 -10.667,1.159 -11.835,6.901 C 3.292,6.903 7.177,6.239 14.863,6.46 24.577,7.012 29.6,6.737 27.319,17.941 24.938,29.642 19.338,30.03 8.905,30.03 -1.637,30.03 -6.847,28.76 -3.525,16.782 l 4.693,0 c -1.963,9.108 -0.198,9.108 8.579,9.108 8.831,0 11.259,0 12.912,-8.114 C 24.267,9.883 20.464,11.204 13.025,10.599 4.99,9.938 -2.223,10.93 0,0"
               style="fill:#1a5dad;fill-opacity:1;fill-rule:nonzero;stroke:none"
               id="path3414" />
          </g>
        </g>
        <g
           id="g3416"
           transform="matrix(0.1558216,0,0,-0.1564003,249.65533,121.01376)">
          <g
             id="g3418"
             transform="translate(458.631,-1687.9489)">
            <path
               d="m 0,0 c 2.253,-11.038 7.531,-12.034 17.745,-12.034 8.942,0 15.318,0.388 12.531,11.651 l -4.693,0 c 1.25,-7.233 -0.071,-7.508 -8.849,-7.508 -9.162,0 -10.667,1.159 -11.835,6.901 C 3.292,6.903 7.177,6.239 14.863,6.46 24.577,7.012 29.6,6.737 27.319,17.941 24.938,29.642 19.338,30.03 8.905,30.03 -1.637,30.03 -6.847,28.76 -3.525,16.782 l 4.693,0 c -1.963,9.108 -0.198,9.108 8.579,9.108 8.831,0 11.259,0 12.912,-8.114 C 24.267,9.883 20.464,11.204 13.025,10.599 4.99,9.938 -2.223,10.93 0,0 z"
               style="fill:none;stroke:#1a5dad;stroke-width:1.83500004;stroke-linecap:butt;stroke-linejoin:miter;stroke-miterlimit:4;stroke-opacity:1;stroke-dasharray:none"
               id="path3420" />
          </g>
        </g>
        <g
           id="g3422"
           transform="matrix(0.1558216,0,0,-0.1564003,249.65533,121.01376)">
          <g
             id="g3424"
             transform="translate(496.996,-1681.4353)">
            <path
               d="m 0,0 20.978,0 -0.787,3.861 -20.977,0 -3.089,15.183 21.914,0 -0.844,4.142 -26.606,0 8.426,-41.403 26.61,0 -0.843,4.145 -21.914,0 L 0,0 z"
               style="fill:#1a5dad;fill-opacity:1;fill-rule:nonzero;stroke:none"
               id="path3426" />
          </g>
        </g>
        <g
           id="g3428"
           transform="matrix(0.1558216,0,0,-0.1564003,249.65533,121.01376)">
          <g
             id="g3430"
             transform="translate(496.996,-1681.4353)">
            <path
               d="m 0,0 20.978,0 -0.787,3.861 -20.977,0 -3.089,15.183 21.914,0 -0.844,4.142 -26.606,0 8.426,-41.403 26.61,0 -0.843,4.145 -21.914,0 L 0,0 z"
               style="fill:none;stroke:#1a5dad;stroke-width:1.83500004;stroke-linecap:butt;stroke-linejoin:miter;stroke-miterlimit:4;stroke-opacity:1;stroke-dasharray:none"
               id="path3432" />
          </g>
        </g>
        <g
           id="g3434"
           transform="matrix(0.1558216,0,0,-0.1564003,249.65533,121.01376)">
          <g
             id="g3436"
             transform="translate(524.902,-1658.2496)">
            <path
               d="m 0,0 -4.692,0 8.425,-41.402 4.694,0 L 0,0 z"
               style="fill:#1a5dad;fill-opacity:1;fill-rule:nonzero;stroke:none"
               id="path3438" />
          </g>
        </g>
        <g
           id="g3440"
           transform="matrix(0.1558216,0,0,-0.1564003,249.65533,121.01376)">
          <g
             id="g3442"
             transform="translate(524.902,-1658.2496)">
            <path
               d="m 0,0 -4.692,0 8.425,-41.402 4.694,0 L 0,0 z"
               style="fill:none;stroke:#1a5dad;stroke-width:1.83500004;stroke-linecap:butt;stroke-linejoin:miter;stroke-miterlimit:4;stroke-opacity:1;stroke-dasharray:none"
               id="path3444" />
          </g>
        </g>
        <g
           id="g3446"
           transform="matrix(0.1558216,0,0,-0.1564003,249.65533,121.01376)">
          <g
             id="g3448"
             transform="translate(538.493,-1662.3912)">
            <path
               d="m 0,0 21.089,0 -0.842,4.142 -25.78,0 8.428,-41.403 4.691,0 L 0,0 z"
               style="fill:#1a5dad;fill-opacity:1;fill-rule:nonzero;stroke:none"
               id="path3450" />
          </g>
        </g>
        <g
           id="g3452"
           transform="matrix(0.1558216,0,0,-0.1564003,249.65533,121.01376)">
          <g
             id="g3454"
             transform="translate(538.493,-1662.3912)">
            <path
               d="m 0,0 21.089,0 -0.842,4.142 -25.78,0 8.428,-41.403 4.691,0 L 0,0 z"
               style="fill:none;stroke:#1a5dad;stroke-width:1.83500004;stroke-linecap:butt;stroke-linejoin:miter;stroke-miterlimit:4;stroke-opacity:1;stroke-dasharray:none"
               id="path3456" />
          </g>
        </g>
        <g
           id="g3458"
           transform="matrix(0.1558216,0,0,-0.1564003,249.65533,121.01376)">
          <g
             id="g3460"
             transform="translate(569.294,-1662.3912)">
            <path
               d="m 0,0 21.088,0 -0.84,4.142 -25.781,0 8.427,-41.403 4.691,0 L 0,0 z"
               style="fill:#1a5dad;fill-opacity:1;fill-rule:nonzero;stroke:none"
               id="path3462" />
          </g>
        </g>
        <g
           id="g3464"
           transform="matrix(0.1558216,0,0,-0.1564003,249.65533,121.01376)">
          <g
             id="g3466"
             transform="translate(569.294,-1662.3912)">
            <path
               d="m 0,0 21.088,0 -0.84,4.142 -25.781,0 8.427,-41.403 4.691,0 L 0,0 z"
               style="fill:none;stroke:#1a5dad;stroke-width:1.83500004;stroke-linecap:butt;stroke-linejoin:miter;stroke-miterlimit:4;stroke-opacity:1;stroke-dasharray:none"
               id="path3468" />
          </g>
        </g>
        <g
           id="g3470"
           transform="matrix(0.1558216,0,0,-0.1564003,249.65533,121.01376)">
          <g
             id="g3472"
             transform="translate(602.099,-1681.4353)">
            <path
               d="m 0,0 20.975,0 -0.787,3.861 -20.975,0 -3.094,15.183 21.915,0 -0.84,4.142 -26.608,0 8.43,-41.403 26.604,0 -0.839,4.145 -21.919,0 L 0,0 z"
               style="fill:#1a5dad;fill-opacity:1;fill-rule:nonzero;stroke:none"
               id="path3474" />
          </g>
        </g>
        <g
           id="g3476"
           transform="matrix(0.1558216,0,0,-0.1564003,249.65533,121.01376)">
          <g
             id="g3478"
             transform="translate(602.099,-1681.4353)">
            <path
               d="m 0,0 20.975,0 -0.787,3.861 -20.975,0 -3.094,15.183 21.915,0 -0.84,4.142 -26.608,0 8.43,-41.403 26.604,0 -0.839,4.145 -21.919,0 L 0,0 z"
               style="fill:none;stroke:#1a5dad;stroke-width:1.83500004;stroke-linecap:butt;stroke-linejoin:miter;stroke-miterlimit:4;stroke-opacity:1;stroke-dasharray:none"
               id="path3480" />
          </g>
        </g>
        <g
           id="g3482"
           transform="matrix(0.1558216,0,0,-0.1564003,249.65533,121.01376)">
          <g
             id="g3484"
             transform="translate(303.017,-1626.9838)">
            <path
               d="m 0,0 -5.684,0 -0.136,-13.324 -0.094,0 -5.768,13.324 -5.779,0 -0.234,-16.576 3.915,0 -0.135,13.861 0.094,0 6.166,-13.861 4.958,0 0.243,13.861 0.126,0 5.788,-13.861 3.852,0 L 0,0 z"
               style="fill:#1a5dad;fill-opacity:1;fill-rule:nonzero;stroke:none"
               id="path3486" />
          </g>
        </g>
        <g
           id="g3488"
           transform="matrix(0.1558216,0,0,-0.1564003,249.65533,121.01376)">
          <g
             id="g3490"
             transform="translate(328.149,-1626.9838)">
            <path
               d="m 0,0 -5.683,0 -0.136,-13.324 -0.095,0 -5.769,13.324 -5.777,0 -0.234,-16.576 3.914,0 -0.136,13.861 0.096,0 6.166,-13.861 4.957,0 0.242,13.861 0.127,0 5.787,-13.861 3.853,0 L 0,0 z"
               style="fill:#1a5dad;fill-opacity:1;fill-rule:nonzero;stroke:none"
               id="path3492" />
          </g>
        </g>
        <g
           id="g3494"
           transform="matrix(0.1558216,0,0,-0.1564003,249.65533,121.01376)">
          <g
             id="g3496"
             transform="translate(353.281,-1626.9838)">
            <path
               d="m 0,0 -5.683,0 -0.136,-13.324 -0.094,0 -5.769,13.324 -5.779,0 -0.234,-16.576 3.916,0 -0.136,13.861 0.095,0 6.166,-13.861 4.958,0 0.242,13.861 0.127,0 5.788,-13.861 3.85,0 L 0,0 z"
               style="fill:#1a5dad;fill-opacity:1;fill-rule:nonzero;stroke:none"
               id="path3498" />
          </g>
        </g>
        <g
           id="g3500"
           transform="matrix(0.1558216,0,0,-0.1564003,249.65533,121.01376)">
          <g
             id="g3502"
             transform="translate(362.033,-1626.9838)">
            <path
               d="m 0,0 -3.98,0 0.92,-4.325 3.978,0 L 0,0 z"
               style="fill:#1a5dad;fill-opacity:1;fill-rule:nonzero;stroke:none"
               id="path3504" />
          </g>
        </g>
        <g
           id="g3506"
           transform="matrix(0.1558216,0,0,-0.1564003,249.65533,121.01376)">
          <g
             id="g3508"
             transform="translate(374.16,-1643.5598)">
            <path
               d="m 0,0 -0.511,2.4 0.126,0 c 1.334,-2.115 3.678,-2.59 5.762,-2.59 2.084,0 4.368,0.537 4.301,2.937 l 0.126,0 c 1.247,-2.305 3.655,-2.937 5.865,-2.937 4.294,0 5.399,1.484 4.535,5.557 l -2.383,11.209 -3.978,0 2.301,-10.83 C 16.492,3.662 16.161,2.84 13.983,2.84 c -3.221,0 -4.16,1.453 -4.784,4.39 l -1.987,9.346 -3.978,0 2.302,-10.83 C 5.883,3.662 5.553,2.84 3.374,2.84 c -3.22,0 -4.161,1.453 -4.784,4.39 l -1.987,9.346 -3.978,0 L -3.851,0 0,0 z"
               style="fill:#1a5dad;fill-opacity:1;fill-rule:nonzero;stroke:none"
               id="path3510" />
          </g>
        </g>
        <g
           id="g3512"
           transform="matrix(0.1558216,0,0,-0.1564003,249.65533,121.01376)">
          <g
             id="g3514"
             transform="translate(400.386,-1632.0668)">
            <path
               d="M 0,0 C -0.497,2.337 0.404,2.556 3.087,2.556 5.203,2.556 6.789,2.368 7.293,0 7.784,-2.306 6.092,-2.367 4.135,-2.367 2.113,-2.367 0.503,-2.367 0,0 m 6.814,2.999 -0.095,0 c -1.26,2.21 -3.704,2.274 -5.63,2.274 -3.757,0 -6.02,-0.79 -5.067,-5.273 0.845,-3.98 3.164,-5.084 7.268,-5.084 2.021,0 4.004,0.033 4.554,1.894 l 0.127,0 0.456,-2.147 c 0.571,-2.682 0.552,-3.63 -2.764,-3.63 -1.736,0 -3.159,0.157 -3.616,2.306 l -3.978,0 c 1.027,-4.832 4.383,-5.022 8.172,-5.022 5.305,0 7.34,0.821 6.159,6.378 l -2.209,10.388 -3.978,0 0.601,-2.084 z"
               style="fill:#1a5dad;fill-opacity:1;fill-rule:nonzero;stroke:none"
               id="path3516" />
          </g>
        </g>
        <g
           id="g3518"
           transform="matrix(0.1558216,0,0,-0.1564003,249.65533,121.01376)">
          <g
             id="g3520"
             transform="translate(421.633,-1643.5598)">
            <path
               d="m 0,0 -0.556,2.177 0.156,0 c 1.177,-1.83 2.993,-2.367 4.916,-2.367 3.499,0 3.906,2.084 3.243,5.21 l -0.28,1.326 -3.719,0 0.18,-0.852 C 4.295,3.82 4.344,2.84 2.487,2.84 0.121,2.84 -0.86,4.2 -1.252,6.346 l -2.167,10.23 -3.975,0 L -3.873,0 0,0 z"
               style="fill:#1a5dad;fill-opacity:1;fill-rule:nonzero;stroke:none"
               id="path3522" />
          </g>
        </g>
        <g
           id="g3524"
           transform="matrix(0.1558216,0,0,-0.1564003,249.65533,121.01376)">
          <g
             id="g3526"
             transform="translate(441.983,-1639.0458)">
            <path
               d="m 0,0 c 0.422,-1.988 -0.619,-1.988 -2.732,-1.988 -2.111,0 -3.561,0 -4.024,2.18 -0.349,1.64 0.08,1.703 3.512,1.861 3.873,0.189 7.405,-0.094 6.264,5.273 -0.953,4.484 -4.583,4.926 -8.774,4.926 -4.506,0 -7.531,0 -6.389,-5.399 l 3.975,0 c -0.449,2.399 0.059,2.682 2.99,2.682 2.365,0 3.74,0.064 4.22,-2.209 0.311,-1.452 0.37,-2.178 -3.622,-2.243 -6.064,-0.093 -6.992,-0.914 -6.095,-5.145 0.967,-4.546 4.265,-4.642 8.519,-4.642 3.248,0 7.119,0.063 6.134,4.704 L 0,0 z"
               style="fill:#1a5dad;fill-opacity:1;fill-rule:nonzero;stroke:none"
               id="path3528" />
          </g>
        </g>
        <g
           id="g3530"
           transform="matrix(0.1558216,0,0,-0.1564003,249.65533,121.01376)">
          <g
             id="g3532"
             transform="translate(459.84,-1637.0558)">
            <path
               d="m 0,0 c 0.724,-3.409 0.274,-3.664 -2.977,-3.664 -3.442,0 -3.819,0.727 -4.442,3.664 L 0,0 z m 2.958,4.798 c -1.106,5.209 -4.161,5.464 -8.896,5.464 -6.347,0 -7.212,-2.022 -5.849,-8.432 1.262,-5.934 2.76,-8.524 9.453,-8.524 6.821,0 7.312,1.989 5.776,9.221 l -11.401,0 c -0.756,3.567 -0.902,4.704 2.664,4.704 2.21,0 3.753,0.031 4.276,-2.433 l 3.977,0 z"
               style="fill:#1a5dad;fill-opacity:1;fill-rule:nonzero;stroke:none"
               id="path3534" />
          </g>
        </g>
        <g
           id="g3536"
           transform="matrix(0.1558216,0,0,-0.1564003,249.65533,121.01376)">
          <g
             id="g3538"
             transform="translate(473.002,-1647.2858)">
            <path
               d="m 0,0 -3.977,0 0.716,-3.378 3.981,0 L 0,0 z m -4.317,20.302 -3.977,0 3.524,-16.576 3.979,0 -3.526,16.576 z"
               style="fill:#1a5dad;fill-opacity:1;fill-rule:nonzero;stroke:none"
               id="path3540" />
          </g>
        </g>
        <g
           id="g3542"
           transform="matrix(0.1558216,0,0,-0.1564003,249.65533,121.01376)">
          <g
             id="g3544"
             transform="translate(476.392,-1626.9838)">
            <path
               d="m 0,0 -3.981,0 5.036,-23.68 3.977,0 L 0,0 z"
               style="fill:#1a5dad;fill-opacity:1;fill-rule:nonzero;stroke:none"
               id="path3546" />
          </g>
        </g>
        <g
           id="g3548"
           transform="matrix(0.1558216,0,0,-0.1564003,249.65533,121.01376)">
          <g
             id="g3550"
             transform="translate(484.348,-1626.9838)">
            <path
               d="m 0,0 -3.978,0 5.033,-23.68 3.976,0 L 0,0 z"
               style="fill:#1a5dad;fill-opacity:1;fill-rule:nonzero;stroke:none"
               id="path3552" />
          </g>
        </g>
        <g
           id="g3554"
           transform="matrix(0.1558216,0,0,-0.1564003,249.65533,121.01376)">
          <g
             id="g3556"
             transform="translate(501.2,-1637.0558)">
            <path
               d="m 0,0 c 0.726,-3.409 0.273,-3.664 -2.979,-3.664 -3.441,0 -3.814,0.727 -4.44,3.664 L 0,0 z m 2.961,4.798 c -1.108,5.209 -4.162,5.464 -8.898,5.464 -6.346,0 -7.211,-2.022 -5.847,-8.432 1.257,-5.934 2.756,-8.524 9.449,-8.524 6.821,0 7.315,1.989 5.776,9.221 l -11.397,0 c -0.757,3.567 -0.907,4.704 2.663,4.704 2.211,0 3.75,0.031 4.275,-2.433 l 3.979,0 z"
               style="fill:#1a5dad;fill-opacity:1;fill-rule:nonzero;stroke:none"
               id="path3558" />
          </g>
        </g>
        <g
           id="g3560"
           transform="matrix(0.1558216,0,0,-0.1564003,249.65533,121.01376)">
          <g
             id="g3562"
             transform="translate(511.121,-1626.9838)">
            <path
               d="m 0,0 -3.979,0 0.92,-4.325 3.978,0 L 0,0 z"
               style="fill:#1a5dad;fill-opacity:1;fill-rule:nonzero;stroke:none"
               id="path3564" />
          </g>
        </g>
        <g
           id="g3566"
           transform="matrix(0.1558216,0,0,-0.1564003,249.65533,121.01376)">
          <g
             id="g3568"
             transform="translate(529.124,-1640.5288)">
            <path
               d="m 0,0 -4.04,0 -2.881,13.545 -3.979,0 L -8.022,0 l -2.334,0 0.643,-3.031 2.339,0 0.307,-1.452 c 0.844,-3.979 2.148,-5.652 6.506,-5.652 l 2.588,0 -0.644,3.03 -1.2,0 c -2.695,-0.093 -2.929,1.012 -3.366,3.063 l -0.215,1.011 4.041,0 L 0,0 z"
               style="fill:#1a5dad;fill-opacity:1;fill-rule:nonzero;stroke:none"
               id="path3570" />
          </g>
        </g>
        <g
           id="g3572"
           transform="matrix(0.1558216,0,0,-0.1564003,249.65533,121.01376)">
          <g
             id="g3574"
             transform="translate(535.513,-1643.5598)">
            <path
               d="m 0,0 -0.557,2.177 0.159,0 c 1.179,-1.83 2.995,-2.367 4.922,-2.367 3.507,0 3.915,2.084 3.252,5.21 l -0.285,1.326 -3.725,0 0.183,-0.852 C 4.303,3.82 4.354,2.84 2.49,2.84 0.124,2.84 -0.858,4.2 -1.253,6.346 l -2.175,10.23 -3.979,0 L -3.882,0 0,0 z"
               style="fill:#1a5dad;fill-opacity:1;fill-rule:nonzero;stroke:none"
               id="path3576" />
          </g>
        </g>
      </g>
    </g>
  </g>
</svg>
